<?xml version="1.0" encoding="utf-8"?>
<!-- Generator: Adobe Illustrator 27.8.0, SVG Export Plug-In . SVG Version: 6.00 Build 0)  -->
<svg version="1.1" id="Calque_2" xmlns="http://www.w3.org/2000/svg" xmlns:xlink="http://www.w3.org/1999/xlink" x="0px" y="0px"
	 viewBox="0 0 463 147.1" style="enable-background:new 0 0 463 147.1;" xml:space="preserve">
<style type="text/css">
	.st0{fill:url(#SVGID_1_);}
	.st1{fill:url(#SVGID_00000105411423851471861780000010181593936454431671_);}
	.st2{fill:url(#SVGID_00000013177046702721350420000008121880210361496759_);}
	.st3{fill:url(#SVGID_00000065767578911624270710000005534261909848755638_);}
	.st4{fill:url(#SVGID_00000023244492123741370780000013262874056699559067_);}
	.st5{fill:url(#SVGID_00000009559176306471141950000004395985677020310918_);}
	.st6{fill:url(#SVGID_00000158731467994536155980000006980723004121699484_);}
	.st7{fill:url(#SVGID_00000082350059779154762900000012599822727707872179_);}
	.st8{fill:url(#SVGID_00000067941898816922646870000005962249364086084993_);}
	.st9{fill:url(#SVGID_00000018932479418790413420000018030970822881511867_);}
	.st10{fill:url(#SVGID_00000172404069880223907580000004427178651560466858_);}
	.st11{fill:url(#SVGID_00000047027109361561235010000007081603635308348033_);}
	.st12{fill:url(#SVGID_00000063628603486690986380000007538140443728441506_);}
	.st13{fill:url(#SVGID_00000021824972987929068400000012666871842120818067_);}
	.st14{fill:url(#SVGID_00000012447562240427528280000003573617829468917922_);}
	.st15{fill:url(#SVGID_00000083798667930962981050000010620447208652471977_);}
	.st16{fill:url(#SVGID_00000134209805012528493190000013774772753620226697_);}
	.st17{fill:url(#SVGID_00000159470818824023609330000015532570788939900842_);}
</style>
<g>
	<g>
		<g>
			<g>
				<linearGradient id="SVGID_1_" gradientUnits="userSpaceOnUse" x1="-5.5184" y1="79.6565" x2="518.3712" y2="79.6565">
					<stop  offset="0" style="stop-color:#4DC0EF"/>
					<stop  offset="6.189487e-02" style="stop-color:#48ABE0"/>
					<stop  offset="0.1889" style="stop-color:#3B76B8"/>
					<stop  offset="0.25" style="stop-color:#345AA3"/>
					<stop  offset="0.3026" style="stop-color:#4056A0"/>
					<stop  offset="0.3979" style="stop-color:#604C98"/>
					<stop  offset="0.5" style="stop-color:#893F8E"/>
					<stop  offset="0.75" style="stop-color:#E62D6B"/>
					<stop  offset="0.9883" style="stop-color:#5B4091"/>
				</linearGradient>
				<path class="st0" d="M409.1,84.4c-0.7,14.7-7.2,16.6-8.5,17c-3.4,1-5.7-1.3-7.9-4.8c-2.2-3.5-7.2-18.8-8.7-18.8
					c-2.3,0-5.4,19.1-5.4,20.6c0,1.5-0.7,3.9-2.9,3.7c-2.3-0.2-3.9-1.7-4-3.9c0.2-12.2,5.6-28.8,6.3-31.1c0.6-2,3.4-3.7,5.4-4.2
					c4.6-1.1,13.5,23.6,16,23.6c0.8,0,0.6-0.1,0.8-1.7c0.3-3.6,0.1-11.1-0.7-16.7c-0.7-5-2-8.8-1.9-9.6c0.4-2,3-1.2,4.7,0.7
					C403.6,60.6,409.8,68.3,409.1,84.4z"/>
			</g>
			
				<linearGradient id="SVGID_00000095339981534702084710000015258341958583907518_" gradientUnits="userSpaceOnUse" x1="-5.5184" y1="79.5917" x2="518.3712" y2="79.5917">
				<stop  offset="0" style="stop-color:#4DC0EF"/>
				<stop  offset="6.189487e-02" style="stop-color:#48ABE0"/>
				<stop  offset="0.1889" style="stop-color:#3B76B8"/>
				<stop  offset="0.25" style="stop-color:#345AA3"/>
				<stop  offset="0.3026" style="stop-color:#4056A0"/>
				<stop  offset="0.3979" style="stop-color:#604C98"/>
				<stop  offset="0.5" style="stop-color:#893F8E"/>
				<stop  offset="0.75" style="stop-color:#E62D6B"/>
				<stop  offset="0.9883" style="stop-color:#5B4091"/>
			</linearGradient>
			<path style="fill:url(#SVGID_00000095339981534702084710000015258341958583907518_);" d="M366.4,99.9c-3.8,4.2-5.5,3.8-7.8,2.9
				c-1.9-0.8-0.4-10.6-1.1-15.6c-5.6,0.7-13.5,2.2-16.5,2.2c-0.6,0-1.3,3-1.3,5.6c0.1,3.8,0.6,8.2-1.1,8.3c-4,0.4-6.9-4.3-7.1-7.6
				c-0.2-3.3,1.2-7.5,0.7-8.1c-0.3-0.4-0.6-0.4-1-1.2c-1-2.3-2-8-1.6-8.1c0.3-0.1,0.8-0.2,1.1-0.2c1.1,0.1,3.1,2.8,3.7,1.4
				c0.7-1.4,1.7-10.2,8.3-19.5c2-2.7,10.1-6,12.4-3.2c7.5,4.5,11.8,18,12.4,22.3C368.3,83.1,370.1,95.8,366.4,99.9z M357,79.8
				c-1.1-4.4-3.2-17.1-7.7-15.6c-3.8,1.3-6.6,10.6-7.1,16.3C347.1,81.3,352.5,80.1,357,79.8z"/>
			<g>
				
					<linearGradient id="SVGID_00000126295258362438250940000004323177903228877973_" gradientUnits="userSpaceOnUse" x1="-5.5184" y1="80.0237" x2="518.3712" y2="80.0237">
					<stop  offset="0" style="stop-color:#4DC0EF"/>
					<stop  offset="6.189487e-02" style="stop-color:#48ABE0"/>
					<stop  offset="0.1889" style="stop-color:#3B76B8"/>
					<stop  offset="0.25" style="stop-color:#345AA3"/>
					<stop  offset="0.3026" style="stop-color:#4056A0"/>
					<stop  offset="0.3979" style="stop-color:#604C98"/>
					<stop  offset="0.5" style="stop-color:#893F8E"/>
					<stop  offset="0.75" style="stop-color:#E62D6B"/>
					<stop  offset="0.9883" style="stop-color:#5B4091"/>
				</linearGradient>
				<path style="fill:url(#SVGID_00000126295258362438250940000004323177903228877973_);" d="M324.2,101.9
					c-2.6,1.5-7.3,5.2-16.7,1.3c-4.7-1.9-7.1-8-4.5-15.9c1.2-3.5,6.7-18.4,7.7-23c1.1-5.6-0.8-7.9-0.5-8.5c1.5-2.7,7.3,4.8,7.6,8.3
					c0.9,10.1-4.8,23.2-5.4,26.7c-0.9,4.9,3.8,3.1,6.1,2.8c2.3-0.4,7.4-2.9,9.5-1.6C330.2,93.3,328.5,99.4,324.2,101.9z"/>
			</g>
			
				<linearGradient id="SVGID_00000176744914246061429210000002658900942128640429_" gradientUnits="userSpaceOnUse" x1="-5.5184" y1="97.8554" x2="518.3712" y2="97.8554">
				<stop  offset="0" style="stop-color:#4DC0EF"/>
				<stop  offset="6.189487e-02" style="stop-color:#48ABE0"/>
				<stop  offset="0.1889" style="stop-color:#3B76B8"/>
				<stop  offset="0.25" style="stop-color:#345AA3"/>
				<stop  offset="0.3026" style="stop-color:#4056A0"/>
				<stop  offset="0.3979" style="stop-color:#604C98"/>
				<stop  offset="0.5" style="stop-color:#893F8E"/>
				<stop  offset="0.75" style="stop-color:#E62D6B"/>
				<stop  offset="0.9883" style="stop-color:#5B4091"/>
			</linearGradient>
			<path style="fill:url(#SVGID_00000176744914246061429210000002658900942128640429_);" d="M286.1,98.9c-4.6,2.5-9.4,2.2-9.5,2.8
				c-6.5,23.9-4.5,35.8-5.6,36.4c-2.2,1.4-8.7-3.2-8.8-5c-1-12.8,3.1-27.6,5.2-34.8c0-0.2-2.1-0.8-5.1-6.1c-1.4-2.5-2-7.5-0.9-12.5
				c1.4-6.1,13.8-22.1,16-22.4c1.8-0.3,1.4,3.5,0.6,5.7c-1.3,3.4-4.3,6.3-6.2,9.3c-2,3-5,8.6-3.3,12.6c1.2,2.7,2,3.6,3,2.9
				c1.8-1.4,4.2-16.6,23.7-26.9c4.3-2.3,7.5,6.8,7.1,12.4C301,92.1,289,97.3,286.1,98.9z M297.5,79.1c1.7-2.8,2.4-10-1.1-9.3
				c-4.1,0.8-15.6,19.7-15.7,21.5c-0.1,1.7,5.9-0.8,7-1.3C289.3,89.1,292.9,86.7,297.5,79.1z"/>
			<g>
				
					<linearGradient id="SVGID_00000082336169968558953180000010919052805038247851_" gradientUnits="userSpaceOnUse" x1="-5.5184" y1="80.2771" x2="518.3712" y2="80.2771">
					<stop  offset="0" style="stop-color:#4DC0EF"/>
					<stop  offset="6.189487e-02" style="stop-color:#48ABE0"/>
					<stop  offset="0.1889" style="stop-color:#3B76B8"/>
					<stop  offset="0.25" style="stop-color:#345AA3"/>
					<stop  offset="0.3026" style="stop-color:#4056A0"/>
					<stop  offset="0.3979" style="stop-color:#604C98"/>
					<stop  offset="0.5" style="stop-color:#893F8E"/>
					<stop  offset="0.75" style="stop-color:#E62D6B"/>
					<stop  offset="0.9883" style="stop-color:#5B4091"/>
				</linearGradient>
				<path style="fill:url(#SVGID_00000082336169968558953180000010919052805038247851_);" d="M243.4,68c-0.6,1.8-1.5,2.8-2.5,4.9
					c-0.9,1.9,10.6,0.7,14,1.8c0.7,0.5,0.6,3.6,0.4,5c-0.2,1.8-15.7,0.9-16.8,2c-0.6,0.5-4,8.3-2.9,8.9c1.8,1.1,16.4-3.6,18.6-2.1
					c3.4,2.4,3.3,4.3,1.8,5.9c-1.4,1.4-20.8,11.9-25.9,6.7c-3.6-3.6-4.4-5.3-4.1-10.4c0.4-5.4,3.6-8.1,3.1-8.9
					c-1.1-2.1-0.8-5.2-0.2-6.5c0.6-1.2,2.9-0.2,3.1-0.6c1-1.9,2.3-6.3,3.2-7.7c0.9-1.3-4.6-1-5.4-2.1c-0.8-1.1-3.6-4.7,0.5-4.7
					c10.2-0.1,23.4-2.6,26.8-1.8c2.7,0.6,7.9,5.6,5.4,7.7C257.6,69.2,249.1,66.5,243.4,68z"/>
			</g>
			<g>
				
					<linearGradient id="SVGID_00000007415604016023096320000000976049123106382987_" gradientUnits="userSpaceOnUse" x1="-5.5184" y1="74.9141" x2="518.3712" y2="74.9141">
					<stop  offset="0" style="stop-color:#4DC0EF"/>
					<stop  offset="6.189487e-02" style="stop-color:#48ABE0"/>
					<stop  offset="0.1889" style="stop-color:#3B76B8"/>
					<stop  offset="0.25" style="stop-color:#345AA3"/>
					<stop  offset="0.3026" style="stop-color:#4056A0"/>
					<stop  offset="0.3979" style="stop-color:#604C98"/>
					<stop  offset="0.5" style="stop-color:#893F8E"/>
					<stop  offset="0.75" style="stop-color:#E62D6B"/>
					<stop  offset="0.9883" style="stop-color:#5B4091"/>
				</linearGradient>
				<path style="fill:url(#SVGID_00000007415604016023096320000000976049123106382987_);" d="M219.8,93.3c-3.1,4.6-6.3,4.1-8.8,2.7
					c-6.7-3.8-10.8-23-14-22.7c-1.9,0.2-1,23.3-2.5,24.4c-1.5,1.1-2.5,3.1-5.7,0.2c-1.3-1.2-0.5-12.1-0.5-12.1
					c0.6-8.8,1.6-23.8,5.8-25.9c3.5-1.8,7.8,6.4,9.9,9.2c2,2.8,7.9,15.8,9.7,15.6c1.9-0.3,0.2-11.4-0.1-14
					c-0.9-10.1-6.6-18.3-4-20.1c1.9-1.4,9.6,6.8,11.4,14.2C222.1,69.2,226.9,82.8,219.8,93.3z"/>
			</g>
			<g>
				
					<linearGradient id="SVGID_00000121278435395728912590000010243323153463751849_" gradientUnits="userSpaceOnUse" x1="-5.5184" y1="77.658" x2="518.3712" y2="77.658">
					<stop  offset="0" style="stop-color:#4DC0EF"/>
					<stop  offset="6.189487e-02" style="stop-color:#48ABE0"/>
					<stop  offset="0.1889" style="stop-color:#3B76B8"/>
					<stop  offset="0.25" style="stop-color:#345AA3"/>
					<stop  offset="0.3026" style="stop-color:#4056A0"/>
					<stop  offset="0.3979" style="stop-color:#604C98"/>
					<stop  offset="0.5" style="stop-color:#893F8E"/>
					<stop  offset="0.75" style="stop-color:#E62D6B"/>
					<stop  offset="0.9883" style="stop-color:#5B4091"/>
				</linearGradient>
				<path style="fill:url(#SVGID_00000121278435395728912590000010243323153463751849_);" d="M180.1,64c-10.7,0.2-27,1.4-28.9,2.6
					c-1.6,1-1.8,1.6,1.9,2.8c6.2,2.1,25.8-0.4,30.9,9.6c1.2,3.2,1.1,9-1.1,13.2c-2.6,4.7-13.9,7.4-21.8,6.6
					c-5.6-0.6-16.9-3.9-17.3-12.5c0.3-3.5,1-6.2,7.2-7.9c6.9-2,21.7,2.2,22.6,4.9c0.6,1.7-8,4.4-12.1,3.2c-3.3-1-10-7.2-13.4-1.4
					c-0.8,2.5,1.1,3.6,3,4.2c10.7,2.5,25.7-0.7,27.4-4.6c1.7-4-4.4-5.3-7.6-6.6c-9.1-3.8-21.5-0.5-27.1-4.5c-3.1-4-1.2-7.5,0-9.9
					c5-8,23.8-7.4,28.6-7.2c4.2,0.1,13,0.4,13.5,2.4C186.9,62.8,182.3,63.3,180.1,64z"/>
			</g>
			<g>
				
					<linearGradient id="SVGID_00000054261554876702217580000002306536023621682819_" gradientUnits="userSpaceOnUse" x1="-5.5184" y1="77.5767" x2="518.3712" y2="77.5767">
					<stop  offset="0" style="stop-color:#4DC0EF"/>
					<stop  offset="6.189487e-02" style="stop-color:#48ABE0"/>
					<stop  offset="0.1889" style="stop-color:#3B76B8"/>
					<stop  offset="0.25" style="stop-color:#345AA3"/>
					<stop  offset="0.3026" style="stop-color:#4056A0"/>
					<stop  offset="0.3979" style="stop-color:#604C98"/>
					<stop  offset="0.5" style="stop-color:#893F8E"/>
					<stop  offset="0.75" style="stop-color:#E62D6B"/>
					<stop  offset="0.9883" style="stop-color:#5B4091"/>
				</linearGradient>
				<path style="fill:url(#SVGID_00000054261554876702217580000002306536023621682819_);" d="M135.1,98.6c-1.7,0.8-6.8-0.6-6.3-2.7
					c-1.3-12.8,0.1-26.9,1.6-37.7c0.8-2.2,4.7-4.2,6.3,3.8c1,15.4,1.2,19.6,1,32.7C137.7,94.8,137.8,97.3,135.1,98.6z"/>
			</g>
			
				<linearGradient id="SVGID_00000019656849191134350290000007126312578207944070_" gradientUnits="userSpaceOnUse" x1="-5.5184" y1="33.7866" x2="518.3712" y2="33.7866">
				<stop  offset="0" style="stop-color:#4DC0EF"/>
				<stop  offset="6.189487e-02" style="stop-color:#48ABE0"/>
				<stop  offset="0.1889" style="stop-color:#3B76B8"/>
				<stop  offset="0.25" style="stop-color:#345AA3"/>
				<stop  offset="0.3026" style="stop-color:#4056A0"/>
				<stop  offset="0.3979" style="stop-color:#604C98"/>
				<stop  offset="0.5" style="stop-color:#893F8E"/>
				<stop  offset="0.75" style="stop-color:#E62D6B"/>
				<stop  offset="0.9883" style="stop-color:#5B4091"/>
			</linearGradient>
			<path style="fill:url(#SVGID_00000019656849191134350290000007126312578207944070_);" d="M152.2,22.3c0.6,0.4,5.8-1.6,8.8,4.7
				c2.8,5.7-7.6,14.6-15.9,18.9c-5.3,2.5-11.2,2.8-17.2,1.2c-2.4,1.1-2.1,4.8-5.3,3.3c-0.5-0.6-1.9-4.5-0.3-6.5
				c-3.8-3.1-3.6-9.3-2.1-13c4.4-7.5,12.4-12.7,20.5-13.9C147.2,16.1,151.2,17.9,152.2,22.3z M152.7,35.4c2.4-2.3,4.5-6.2,1.4-8.2
				c-7.4-4.7-17.1,7.9-23.2,13.9c5,2.5,14.1-0.8,15.4-1.5C147.6,38.9,150.3,37.7,152.7,35.4z M137.5,25.7c-1.7-2.7-9.8,3.6-12.2,6.6
				c-2.5,3.1-1.3,4.8-0.2,5.7C129.5,32.1,133.5,28.6,137.5,25.7z"/>
			
				<linearGradient id="SVGID_00000004507921287991065670000010536884323825508760_" gradientUnits="userSpaceOnUse" x1="-5.5184" y1="83.9611" x2="518.3712" y2="83.9611">
				<stop  offset="0" style="stop-color:#4DC0EF"/>
				<stop  offset="6.189487e-02" style="stop-color:#48ABE0"/>
				<stop  offset="0.1889" style="stop-color:#3B76B8"/>
				<stop  offset="0.25" style="stop-color:#345AA3"/>
				<stop  offset="0.3026" style="stop-color:#4056A0"/>
				<stop  offset="0.3979" style="stop-color:#604C98"/>
				<stop  offset="0.5" style="stop-color:#893F8E"/>
				<stop  offset="0.75" style="stop-color:#E62D6B"/>
				<stop  offset="0.9883" style="stop-color:#5B4091"/>
			</linearGradient>
			<path style="fill:url(#SVGID_00000004507921287991065670000010536884323825508760_);" d="M429.4,104.4c7.3,0.6,14.9-2.7,17.7-5.2
				c10.6-9.6,8.4-18.4,5.6-23.2c-8.7-14.9-29.9-18-36.2-15.4c-6.3,2.5-6.4,4.6-6.1,6.3c0.4,2.5,2.4,3,3.1,2.5
				c0.4-0.4,0.8-0.6,0.4-1.8c-0.4-1.2,1.2-2.4,3-2.6c7.1-0.9,15.9,4.9,18.3,6.6c10.2,7.4,12.2,17.3,10.7,20.5
				c-1.5,3.2-10.4,4.2-17.5,2.5c0,0-0.4-8.5,0.2-20.1c0.1-1.6-1.2-2.9-3.4-2.3c-4,1.1-5.2,16.7-5.3,17.5c0,1.1-2.1-1.7-3-2.8
				c-0.8-1.1-3-0.8-3.6,0.7c-0.2,0.6-2.6,6.3,1.7,10.5c1.4,1.4,3.6,2.7,4.6,3.2c0.6,3.4,1.8,7.3,5.1,6.8
				C427.4,107.8,428.5,108.4,429.4,104.4z"/>
			
				<linearGradient id="SVGID_00000000935509228482784880000006028024254501072008_" gradientUnits="userSpaceOnUse" x1="-5.5184" y1="57.8495" x2="518.3712" y2="57.8495">
				<stop  offset="0" style="stop-color:#4DC0EF"/>
				<stop  offset="6.189487e-02" style="stop-color:#48ABE0"/>
				<stop  offset="0.1889" style="stop-color:#3B76B8"/>
				<stop  offset="0.25" style="stop-color:#345AA3"/>
				<stop  offset="0.3026" style="stop-color:#4056A0"/>
				<stop  offset="0.3979" style="stop-color:#604C98"/>
				<stop  offset="0.5" style="stop-color:#893F8E"/>
				<stop  offset="0.75" style="stop-color:#E62D6B"/>
				<stop  offset="0.9883" style="stop-color:#5B4091"/>
			</linearGradient>
			<path style="fill:url(#SVGID_00000000935509228482784880000006028024254501072008_);" d="M46.7,89.8C32.1,84.1,22,75.9,22,71
				c0-3.4,13-4.7,25.3-5.1C47,73.6,46.7,82.5,46.7,89.8z M58.2,101.4c6.7,2.1,13.4,3.4,19.3,3.4c22.5,0,46-13.2,46-34
				c0-27.8-49.6-63.2-95.1-63.2c-13.2,0-20.5,1.9-23,3.4c-1.9,1.2-5.5,5-5.5,6.6c0,3.6,4.1,3.7,6,3.7c1.8,0,4.2-0.4,4.2-2
				c0-1.1-0.9-1.7-1.7-1.7c-0.8,0-4.2,1.2-4.2-0.8c0-1.6,10.1-2.6,18.6-2.6c49.9,0,89.3,34.9,89.3,56.7c0,13.1-11.4,25-33.6,25
				c-7.1,0-14-1-20.5-2.6c-0.2-5.5-0.4-17.3-0.5-27.7c1.4,0,2.7,0,3.9,0c9.3,0,25.4,2.6,25.4,5.8c0,3.3-3.8,4.6-5.4,5.2
				c-1.1,0.5,0.1,1.2,0.9,1.6c0.8,0.4,1.7,0.7,3.2,0.7c3.6,0,9.5-3.8,9.5-8.7c0-7-10.2-14.7-31.2-14.7c-1.6,0-3.8,0.1-6.3,0.3
				c0-4.3,0.1-7.7,0.2-9.2c0.4-4.5-1.8-9.9-3.3-11.6c-1.4-1.7-3.2-1.9-4.1,0.8c-0.9,2.6-2.2,10.3-2.4,12.6c0,0.6-0.2,3.9-0.4,8.7
				c-13.6,2.1-29.2,6.6-29.2,14c0,7.9,13,18.6,28.5,25.8c0.1,1.5,0.1,2.8,0.2,3.9c0.3,2.8,0.5,7.1,6.1,7.1
				C56.7,108.1,57.9,105.1,58.2,101.4z"/>
		</g>
	</g>
</g>
<linearGradient id="SVGID_00000107559189368675134960000008257124433807749511_" gradientUnits="userSpaceOnUse" x1="-5.536" y1="96.0393" x2="518.3536" y2="96.0393">
	<stop  offset="0" style="stop-color:#4DC0EF"/>
	<stop  offset="6.189487e-02" style="stop-color:#48ABE0"/>
	<stop  offset="0.1889" style="stop-color:#3B76B8"/>
	<stop  offset="0.25" style="stop-color:#345AA3"/>
	<stop  offset="0.3026" style="stop-color:#4056A0"/>
	<stop  offset="0.3979" style="stop-color:#604C98"/>
	<stop  offset="0.5" style="stop-color:#893F8E"/>
	<stop  offset="0.75" style="stop-color:#E62D6B"/>
	<stop  offset="0.9883" style="stop-color:#5B4091"/>
</linearGradient>
<path style="fill:url(#SVGID_00000107559189368675134960000008257124433807749511_);" d="M459.5,93.9c0.2,0,0.7,0,1,0.6
	c0.1,0.2,0.1,0.5,0.1,0.6c0,0.1,0,0.2,0,0.3c0,0.2-0.2,0.5-0.5,0.7c-0.1,0-0.2,0.1-0.4,0.1c0.2,0.1,0.3,0.2,0.4,0.4l0.7,1l0.3,0.4
	l-0.4,0.3l-0.3-0.4l-0.6-0.9c-0.1-0.1-0.2-0.2-0.2-0.3c0,0-0.1-0.1-0.2-0.2c-0.1-0.1-0.3-0.1-0.7-0.1v1.8h-0.5v-4.2H459.5z
	 M458.7,95.9c0.2,0,0.4,0,0.6,0c0.3,0,0.5-0.1,0.6-0.2c0.1-0.1,0.3-0.3,0.3-0.7c0-0.1,0-0.2-0.1-0.3c-0.1-0.2-0.3-0.4-0.5-0.4
	c-0.2,0-0.4,0-0.4,0c-0.2,0-0.3,0-0.5,0V95.9z"/>
<linearGradient id="SVGID_00000170963996231567369160000008221439954361741982_" gradientUnits="userSpaceOnUse" x1="-5.536" y1="96.0083" x2="518.3536" y2="96.0083">
	<stop  offset="0" style="stop-color:#4DC0EF"/>
	<stop  offset="6.189487e-02" style="stop-color:#48ABE0"/>
	<stop  offset="0.1889" style="stop-color:#3B76B8"/>
	<stop  offset="0.25" style="stop-color:#345AA3"/>
	<stop  offset="0.3026" style="stop-color:#4056A0"/>
	<stop  offset="0.3979" style="stop-color:#604C98"/>
	<stop  offset="0.5" style="stop-color:#893F8E"/>
	<stop  offset="0.75" style="stop-color:#E62D6B"/>
	<stop  offset="0.9883" style="stop-color:#5B4091"/>
</linearGradient>
<path style="fill:url(#SVGID_00000170963996231567369160000008221439954361741982_);" d="M459.4,99.6c1,0,1.8-0.4,2.5-1
	c0.7-0.7,1-1.6,1-2.5c0-1-0.4-1.8-1-2.5c-0.7-0.7-1.6-1-2.5-1c-2,0-3.6,1.6-3.6,3.6c0,0.9,0.4,1.8,1,2.5
	C457.5,99.2,458.4,99.6,459.4,99.6z M456.1,96c0-0.9,0.3-1.7,1-2.3c0.6-0.6,1.4-1,2.3-1c0.9,0,1.7,0.3,2.3,1c0.6,0.6,1,1.5,1,2.3
	c0,1.8-1.5,3.3-3.3,3.3c-0.9,0-1.7-0.3-2.3-1C456.4,97.7,456.1,96.9,456.1,96z"/>
<linearGradient id="SVGID_00000070821723051583169310000007900699990985210026_" gradientUnits="userSpaceOnUse" x1="-5.536" y1="124.2578" x2="518.3536" y2="124.2578">
	<stop  offset="0" style="stop-color:#4DC0EF"/>
	<stop  offset="6.189487e-02" style="stop-color:#48ABE0"/>
	<stop  offset="0.1889" style="stop-color:#3B76B8"/>
	<stop  offset="0.25" style="stop-color:#345AA3"/>
	<stop  offset="0.3026" style="stop-color:#4056A0"/>
	<stop  offset="0.3979" style="stop-color:#604C98"/>
	<stop  offset="0.5" style="stop-color:#893F8E"/>
	<stop  offset="0.75" style="stop-color:#E62D6B"/>
	<stop  offset="0.9883" style="stop-color:#5B4091"/>
</linearGradient>
<path style="fill:url(#SVGID_00000070821723051583169310000007900699990985210026_);" d="M304.5,115.7c2.3,0,3.4,0.2,4.7,0.7
	c2,0.9,3.3,2.6,3.3,4.4c0,1.8-1.2,3.5-3.1,4.4c-1.4,0.7-2.3,0.8-5.1,0.8h-3.2v6.9h-5.4v-17.2H304.5z M301.2,122.8h1.8c3,0,4-0.5,4-2
	c0-1.4-1.1-1.9-3.9-1.9h-1.9V122.8z"/>
<linearGradient id="SVGID_00000170257154832966932890000008909930046124917388_" gradientUnits="userSpaceOnUse" x1="-5.536" y1="124.2578" x2="518.3536" y2="124.2578">
	<stop  offset="0" style="stop-color:#4DC0EF"/>
	<stop  offset="6.189487e-02" style="stop-color:#48ABE0"/>
	<stop  offset="0.1889" style="stop-color:#3B76B8"/>
	<stop  offset="0.25" style="stop-color:#345AA3"/>
	<stop  offset="0.3026" style="stop-color:#4056A0"/>
	<stop  offset="0.3979" style="stop-color:#604C98"/>
	<stop  offset="0.5" style="stop-color:#893F8E"/>
	<stop  offset="0.75" style="stop-color:#E62D6B"/>
	<stop  offset="0.9883" style="stop-color:#5B4091"/>
</linearGradient>
<path style="fill:url(#SVGID_00000170257154832966932890000008909930046124917388_);" d="M352.7,132.9H347l-1.8-3.4h-9.6l-1.6,3.4
	h-5.7l8.7-17.2h6.2L352.7,132.9z M337,126.4h6.6l-3.5-6.6L337,126.4z"/>
<linearGradient id="SVGID_00000123399257496945626490000002146823867825756548_" gradientUnits="userSpaceOnUse" x1="-5.536" y1="124.2578" x2="518.3536" y2="124.2578">
	<stop  offset="0" style="stop-color:#4DC0EF"/>
	<stop  offset="6.189487e-02" style="stop-color:#48ABE0"/>
	<stop  offset="0.1889" style="stop-color:#3B76B8"/>
	<stop  offset="0.25" style="stop-color:#345AA3"/>
	<stop  offset="0.3026" style="stop-color:#4056A0"/>
	<stop  offset="0.3979" style="stop-color:#604C98"/>
	<stop  offset="0.5" style="stop-color:#893F8E"/>
	<stop  offset="0.75" style="stop-color:#E62D6B"/>
	<stop  offset="0.9883" style="stop-color:#5B4091"/>
</linearGradient>
<path style="fill:url(#SVGID_00000123399257496945626490000002146823867825756548_);" d="M380.2,115.7c3.1,0,4.2,0.2,5.6,0.9
	c1.7,0.9,2.8,2.5,2.8,4.1c0,1.3-0.7,2.5-1.8,3.3c-0.6,0.4-0.9,0.6-1.9,0.9c1.1,0.5,2.1,1.4,3.1,3.2l0.9,1.5l0.6,1l0.7,1.2l0.6,1
	l0.2,0.3H385l-0.1-0.2l-0.4-0.7l-0.4-0.8l-0.6-1.1l-0.8-1.5c-0.8-1.5-1.9-2.4-2.9-2.7c-0.5-0.1-0.6-0.1-1.5-0.1h-0.8v7H372v-17.2
	H380.2z M377.4,122.7h2.2l0.4,0l0.7,0c1.4,0,2.4-0.8,2.4-1.9c0-1.3-1-2-3-2h-2.7V122.7z"/>
<linearGradient id="SVGID_00000054249042535235492140000002966447623497387682_" gradientUnits="userSpaceOnUse" x1="-5.536" y1="124.2578" x2="518.3536" y2="124.2578">
	<stop  offset="0" style="stop-color:#4DC0EF"/>
	<stop  offset="6.189487e-02" style="stop-color:#48ABE0"/>
	<stop  offset="0.1889" style="stop-color:#3B76B8"/>
	<stop  offset="0.25" style="stop-color:#345AA3"/>
	<stop  offset="0.3026" style="stop-color:#4056A0"/>
	<stop  offset="0.3979" style="stop-color:#604C98"/>
	<stop  offset="0.5" style="stop-color:#893F8E"/>
	<stop  offset="0.75" style="stop-color:#E62D6B"/>
	<stop  offset="0.9883" style="stop-color:#5B4091"/>
</linearGradient>
<path style="fill:url(#SVGID_00000054249042535235492140000002966447623497387682_);" d="M418.4,132.9H413v-17.2h5.4V132.9z"/>
<linearGradient id="SVGID_00000000942009091895412880000016125667543020497825_" gradientUnits="userSpaceOnUse" x1="-5.536" y1="124.2595" x2="518.3536" y2="124.2595">
	<stop  offset="0" style="stop-color:#4DC0EF"/>
	<stop  offset="6.189487e-02" style="stop-color:#48ABE0"/>
	<stop  offset="0.1889" style="stop-color:#3B76B8"/>
	<stop  offset="0.25" style="stop-color:#345AA3"/>
	<stop  offset="0.3026" style="stop-color:#4056A0"/>
	<stop  offset="0.3979" style="stop-color:#604C98"/>
	<stop  offset="0.5" style="stop-color:#893F8E"/>
	<stop  offset="0.75" style="stop-color:#E62D6B"/>
	<stop  offset="0.9883" style="stop-color:#5B4091"/>
</linearGradient>
<path style="fill:url(#SVGID_00000000942009091895412880000016125667543020497825_);" d="M455.2,120.3l-0.4-0.2
	c-2.6-1-4.7-1.5-6.5-1.5c-2,0-3.2,0.6-3.2,1.4c0,0.7,1.1,1.4,3.5,2l1.7,0.5c4.1,1.2,5.9,2.8,5.9,5.4c0,3-3.4,5.1-8.4,5.1
	c-1.8,0-3.5-0.3-5.7-0.9c-1.3-0.4-1.4-0.4-1.9-0.7v-3.7c1.6,0.8,2.4,1.2,3.5,1.5c1.4,0.5,2.6,0.7,4,0.7c2.1,0,3.2-0.5,3.2-1.6
	c0-0.9-0.7-1.3-2.9-1.9l-1.2-0.3c-1.7-0.5-2.6-0.8-3.6-1.2c-0.8-0.4-1.5-0.8-2-1.3c-0.9-0.8-1.4-2-1.4-3.2c0-2.9,3.2-4.9,8.1-4.9
	c2.4,0,4.5,0.4,7.3,1.3V120.3z"/>
</svg>
